<svg width="125" height="20" viewBox="0 0 125 20" fill="none" xmlns="http://www.w3.org/2000/svg">
<path d="M2.85166 13.6603V6.05941V5.82001C2.63383 5.95966 2.83978 5.82001 5.40627 4.14423C2.26945 2.37268 0.495083 4.88237 0 6.35866V14.3186C0.237638 15.6593 0.93075 16.3136 1.2476 16.4732C1.67535 16.6169 1.54465 17.0717 1.36642 17.4308C1.04957 17.5106 0.475281 17.8378 0.71292 18.5081C1.78229 18.9271 2.85166 18.3286 4.15867 17.6702C6.00037 17.8498 10.5155 14.0792 12.7136 12.6429C9.86199 10.8474 7.36679 12.7626 5.40627 14.0792C3.83786 15.1326 3.0497 14.2388 2.85166 13.6603Z" fill="#ED57BB"/>
<path d="M9.05547 1.49514L2.63867 5.90424C3.74212 6.96726 5.89704 6.70955 6.83658 6.44783C7.25637 6.22637 8.50374 5.50561 10.1349 4.39428C11.7661 3.28294 12.4937 4.45467 12.6537 5.17946V12.7293C12.1339 13.0917 10.9025 13.9493 10.1349 14.4808C13.6852 16.2203 15.2524 13.5547 15.5922 12.0045V4.81707C15.5322 4.21308 15.3523 3.72989 14.8126 2.64272C13.0855 0.178453 10.2549 0.850891 9.05547 1.49514Z" fill="#1093ED"/>
<path d="M25.013 5.37124C25.203 5.37124 25.373 5.42124 25.523 5.52124C25.683 5.62124 25.778 5.79624 25.808 6.04624C25.928 6.83624 26.003 7.62624 26.033 8.41624C26.073 9.19624 26.093 10.0812 26.093 11.0712C26.093 11.4912 26.058 12.2562 25.988 13.3662C26.428 13.4062 26.768 13.4262 27.008 13.4262C27.178 13.4262 27.563 13.4012 28.163 13.3512C28.513 13.3012 28.818 13.2762 29.078 13.2762C29.318 13.2762 29.538 13.3012 29.738 13.3512C29.938 13.3912 30.143 13.4612 30.353 13.5612C30.563 13.6812 30.668 13.8662 30.668 14.1162C30.668 14.3162 30.603 14.4962 30.473 14.6562C30.353 14.8162 30.208 14.8962 30.038 14.8962C29.918 14.8962 29.728 14.8762 29.468 14.8362C28.998 14.7662 28.548 14.7312 28.118 14.7312C27.978 14.7312 27.818 14.7412 27.638 14.7612C27.468 14.7712 27.343 14.7762 27.263 14.7762C27.023 14.8062 26.783 14.8212 26.543 14.8212C26.053 14.8212 25.613 14.7962 25.223 14.7462C25.023 14.7262 24.823 14.6512 24.623 14.5212C24.423 14.3812 24.323 14.1812 24.323 13.9212C24.323 13.7712 24.343 13.3862 24.383 12.7662C24.453 11.7362 24.488 10.9512 24.488 10.4112C24.488 9.99124 24.468 9.55124 24.428 9.09124C24.388 8.63124 24.363 8.34124 24.353 8.22124C24.263 7.37124 24.218 6.67124 24.218 6.12124C24.218 5.86124 24.278 5.67124 24.398 5.55124C24.528 5.43124 24.733 5.37124 25.013 5.37124ZM31.4162 11.7162C31.4162 11.3362 31.4862 10.9562 31.6262 10.5762C31.7662 10.1862 31.9512 9.83124 32.1812 9.51124C32.4112 9.19124 32.7762 8.93124 33.2762 8.73124C33.7762 8.52124 34.2212 8.41624 34.6112 8.41624C35.0112 8.41624 35.4162 8.47124 35.8262 8.58124C36.2462 8.69124 36.5362 8.86124 36.6962 9.09124C37.0662 9.61124 37.2512 10.1212 37.2512 10.6212C37.2512 10.8912 37.1912 11.1212 37.0712 11.3112C36.9612 11.5012 36.8012 11.7062 36.5912 11.9262C36.4212 12.1062 36.1512 12.2262 35.7812 12.2862C35.4212 12.3462 35.0612 12.3762 34.7012 12.3762C34.4712 12.3762 34.1912 12.3562 33.8612 12.3162C33.5312 12.2662 33.2112 12.2062 32.9012 12.1362C32.9212 12.3362 32.9712 12.5312 33.0512 12.7212C33.1312 12.9112 33.2262 13.0562 33.3362 13.1562C33.5362 13.3462 33.7412 13.4662 33.9512 13.5162C34.1712 13.5662 34.4512 13.5912 34.7912 13.5912C35.1512 13.5912 35.4862 13.5312 35.7962 13.4112C36.0462 13.3212 36.2512 13.2762 36.4112 13.2762C36.6012 13.2762 36.7462 13.3362 36.8462 13.4562C36.9462 13.5662 36.9962 13.7112 36.9962 13.8912C36.9962 14.1412 36.8512 14.3462 36.5612 14.5062C36.2712 14.6662 35.9362 14.7862 35.5562 14.8662C35.1862 14.9362 34.8862 14.9712 34.6562 14.9712C34.1862 14.9712 33.7312 14.8862 33.2912 14.7162C32.8512 14.5462 32.4862 14.3062 32.1962 13.9962C31.9562 13.7162 31.7662 13.3812 31.6262 12.9912C31.4862 12.5912 31.4162 12.1662 31.4162 11.7162ZM34.6862 9.69124C34.4662 9.69124 34.2462 9.73624 34.0262 9.82624C33.8062 9.90624 33.6262 10.0212 33.4862 10.1712C33.3062 10.3612 33.1812 10.5162 33.1112 10.6362C33.0512 10.7462 33.0112 10.9012 32.9912 11.1012C33.2412 11.1812 33.7612 11.2212 34.5512 11.2212C34.9812 11.2212 35.3112 11.1562 35.5412 11.0262C35.7812 10.8962 35.9012 10.7262 35.9012 10.5162C35.9012 10.3062 35.7712 10.1162 35.5112 9.94624C35.2512 9.77624 34.9762 9.69124 34.6862 9.69124ZM38.6846 9.70624C38.5446 9.68624 38.4296 9.62624 38.3396 9.52624C38.2596 9.42624 38.2196 9.30624 38.2196 9.16624C38.2196 9.09624 38.2346 9.02124 38.2646 8.94124C38.3046 8.86124 38.3596 8.79124 38.4296 8.73124C38.5596 8.60124 38.9096 8.53624 39.4796 8.53624C39.5596 8.14624 39.5996 7.75124 39.5996 7.35124C39.5996 7.20124 39.5946 7.07124 39.5846 6.96124C39.5746 6.85124 39.5696 6.76624 39.5696 6.70624C39.5696 6.48624 39.6496 6.32124 39.8096 6.21124C39.9796 6.10124 40.1696 6.04624 40.3796 6.04624C40.6396 6.04624 40.8146 6.11124 40.9046 6.24124C41.0046 6.37124 41.0546 6.61124 41.0546 6.96124C41.0546 7.48124 41.0096 7.99124 40.9196 8.49124C41.0796 8.49124 41.2996 8.48124 41.5796 8.46124C41.9596 8.44124 42.2346 8.43124 42.4046 8.43124C42.5746 8.43124 42.7196 8.47624 42.8396 8.56624C42.9696 8.64624 43.0346 8.76124 43.0346 8.91124C43.0346 9.30124 42.8596 9.53124 42.5096 9.60124C42.1396 9.69124 41.5646 9.74624 40.7846 9.76624C40.7546 10.1562 40.7396 10.5812 40.7396 11.0412C40.7396 11.7612 40.7846 12.3512 40.8746 12.8112C40.9346 13.1312 41.0346 13.3662 41.1746 13.5162C41.3246 13.6562 41.5446 13.7262 41.8346 13.7262C42.0046 13.7262 42.1796 13.6812 42.3596 13.5912C42.4796 13.5212 42.5896 13.4862 42.6896 13.4862C42.8296 13.4862 42.9296 13.5312 42.9896 13.6212C43.0596 13.7112 43.0946 13.8312 43.0946 13.9812C43.0946 14.2612 42.9446 14.4962 42.6446 14.6862C42.3446 14.8662 41.9596 14.9562 41.4896 14.9562C41.1996 14.9562 40.9046 14.8862 40.6046 14.7462C40.3146 14.6062 40.0696 14.4312 39.8696 14.2212C39.8396 14.1912 39.7846 14.0762 39.7046 13.8762C39.6246 13.6762 39.5546 13.4612 39.4946 13.2312C39.3946 12.7612 39.3446 12.1012 39.3446 11.2512C39.3446 10.8812 39.3646 10.3862 39.4046 9.76624L38.6846 9.70624ZM44.7743 6.84124C44.6643 6.84124 44.5843 6.82124 44.5343 6.78124C44.4043 6.70124 44.2943 6.60624 44.2043 6.49624C44.1243 6.38624 44.0843 6.22624 44.0843 6.01624C44.0943 5.86624 44.1293 5.73624 44.1893 5.62624C44.2493 5.50624 44.3343 5.42124 44.4443 5.37124C44.6543 5.26124 44.9243 5.20624 45.2543 5.20624C45.4943 5.20624 45.6793 5.29624 45.8093 5.47624C45.9493 5.64624 46.0193 5.85624 46.0193 6.10624C46.0193 6.40624 45.9293 6.75624 45.7493 7.15624C45.5793 7.54624 45.4093 7.85124 45.2393 8.07124C45.1093 8.22124 44.9643 8.35124 44.8043 8.46124C44.6443 8.57124 44.5043 8.62624 44.3843 8.62624C44.1443 8.62624 43.9943 8.59124 43.9343 8.52124C43.8843 8.44124 43.8593 8.30624 43.8593 8.11624C43.8593 8.03624 43.9643 7.91124 44.1743 7.74124C44.3443 7.59124 44.4493 7.48624 44.4893 7.42624C44.6393 7.22624 44.7493 7.03124 44.8193 6.84124H44.7743ZM51.4247 11.6562C51.5047 11.7062 51.6597 11.8012 51.8897 11.9412C52.1297 12.0712 52.2897 12.2262 52.3697 12.4062C52.4497 12.5862 52.4897 12.8362 52.4897 13.1562C52.4897 13.5162 52.3847 13.8362 52.1747 14.1162C51.9647 14.3862 51.6947 14.5962 51.3647 14.7462C51.1347 14.8462 50.8847 14.9062 50.6147 14.9262C50.3547 14.9462 50.0397 14.9562 49.6697 14.9562C49.4697 14.9562 49.2097 14.9262 48.8897 14.8662C48.5797 14.8062 48.3647 14.7512 48.2447 14.7012C47.9247 14.5212 47.6547 14.3112 47.4347 14.0712C47.2147 13.8312 47.1047 13.5862 47.1047 13.3362C47.1047 13.1362 47.1697 12.9762 47.2997 12.8562C47.4297 12.7362 47.5997 12.6762 47.8097 12.6762C47.9197 12.6762 48.0247 12.7062 48.1247 12.7662C48.2347 12.8162 48.3097 12.8762 48.3497 12.9462C48.4597 13.2062 48.6447 13.4012 48.9047 13.5312C49.1647 13.6612 49.4297 13.7262 49.6997 13.7262C50.6497 13.7262 51.1247 13.5562 51.1247 13.2162C51.1247 13.1262 51.0997 13.0562 51.0497 13.0062C51.0097 12.9462 50.9497 12.8862 50.8697 12.8262C50.7397 12.7362 50.5547 12.6412 50.3147 12.5412C50.0847 12.4412 49.8797 12.3662 49.6997 12.3162C49.2897 12.2262 48.8897 12.0912 48.4997 11.9112C48.1397 11.7312 47.8447 11.4962 47.6147 11.2062C47.3847 10.9062 47.2697 10.5412 47.2697 10.1112C47.2697 9.85124 47.3647 9.59624 47.5547 9.34624C47.7547 9.08624 47.9847 8.89124 48.2447 8.76124C48.4247 8.69124 48.7197 8.61624 49.1297 8.53624C49.5397 8.45624 49.8197 8.41624 49.9697 8.41624C50.1997 8.41624 50.4497 8.44124 50.7197 8.49124C50.9897 8.53124 51.1947 8.60124 51.3347 8.70124C51.6047 8.86124 51.8247 9.03124 51.9947 9.21124C52.1647 9.38124 52.2497 9.57624 52.2497 9.79624C52.2497 9.90624 52.2247 10.0262 52.1747 10.1562C52.1247 10.2762 52.0647 10.3512 51.9947 10.3812C51.8447 10.4512 51.6697 10.4862 51.4697 10.4862C51.3797 10.4862 51.3047 10.4612 51.2447 10.4112C51.1947 10.3612 51.1247 10.2812 51.0347 10.1712C50.9247 10.0012 50.8197 9.90124 50.7197 9.87124C50.5997 9.84124 50.4247 9.80624 50.1947 9.76624C49.9647 9.71624 49.8097 9.69124 49.7297 9.69124C49.4797 9.69124 49.2397 9.74124 49.0097 9.84124C48.7897 9.94124 48.6797 10.0762 48.6797 10.2462C48.6797 10.4462 48.8447 10.6162 49.1747 10.7562C49.3847 10.8562 49.6147 10.9412 49.8647 11.0112C50.1247 11.0812 50.2847 11.1262 50.3447 11.1462C50.4847 11.1762 50.6647 11.2462 50.8847 11.3562C51.1147 11.4662 51.2947 11.5662 51.4247 11.6562ZM65.3585 11.8662C65.3585 12.4262 65.1435 12.9612 64.7135 13.4712C64.2935 13.9712 63.7585 14.3662 63.1085 14.6562C62.8285 14.7462 62.4735 14.8212 62.0435 14.8812C61.6135 14.9312 61.1785 14.9612 60.7385 14.9712C59.8785 14.9712 59.0785 14.8512 58.3385 14.6112C58.2085 14.5812 58.0585 14.4962 57.8885 14.3562C57.7185 14.2162 57.6385 14.0312 57.6485 13.8012V13.2912C57.6485 12.7312 57.6335 12.1912 57.6035 11.6712C57.5835 10.9912 57.5735 10.4712 57.5735 10.1112L57.5585 8.41624C57.5585 7.81624 57.5785 7.21124 57.6185 6.60124C57.6285 6.29124 57.7435 6.03124 57.9635 5.82124C58.1935 5.60124 58.4785 5.46624 58.8185 5.41624C58.9485 5.40624 59.1835 5.40124 59.5235 5.40124L60.9635 5.41624C61.6535 5.41624 62.2685 5.50624 62.8085 5.68624C63.3485 5.86624 63.8135 6.15624 64.2035 6.55624C64.3335 6.70624 64.4385 6.90624 64.5185 7.15624C64.5985 7.39624 64.6385 7.63124 64.6385 7.86124C64.6085 8.67124 64.1435 9.33124 63.2435 9.84124C63.9635 9.93124 64.4935 10.1562 64.8335 10.5162C65.1835 10.8762 65.3585 11.3262 65.3585 11.8662ZM59.6885 9.48124C59.7885 9.47124 59.9485 9.46624 60.1685 9.46624H60.8435C61.1435 9.46624 61.3535 9.45624 61.4735 9.43624C62.4935 9.20624 63.0035 8.80124 63.0035 8.22124C63.0035 8.07124 62.9785 7.91124 62.9285 7.74124C62.8885 7.57124 62.8335 7.45124 62.7635 7.38124C62.5035 7.13124 62.2585 6.97124 62.0285 6.90124C61.7985 6.82124 61.4585 6.78124 61.0085 6.78124C60.1385 6.78124 59.5135 6.82624 59.1335 6.91624L59.1485 9.49624L59.6885 9.48124ZM60.3785 13.7112C61.4185 13.7112 62.2335 13.5812 62.8235 13.3212C63.4235 13.0612 63.7235 12.5512 63.7235 11.7912C63.7235 11.4912 63.5035 11.2462 63.0635 11.0562C62.6235 10.8562 62.1435 10.7562 61.6235 10.7562C60.9835 10.7562 60.5335 10.7712 60.2735 10.8012C60.0535 10.8212 59.9035 10.8312 59.8235 10.8312C59.6735 10.8312 59.5685 10.8262 59.5085 10.8162C59.4585 10.8162 59.3985 10.8162 59.3285 10.8162C59.2685 10.8062 59.2035 10.8062 59.1335 10.8162L59.1485 11.3112C59.1585 11.4312 59.1735 11.7612 59.1935 12.3012C59.2235 12.8312 59.2285 13.2062 59.2085 13.4262C59.4385 13.5262 59.6385 13.6012 59.8085 13.6512C59.9785 13.6912 60.1685 13.7112 60.3785 13.7112ZM66.6011 11.4612C66.6011 10.8512 66.7361 10.3462 67.0061 9.94624C67.2761 9.53624 67.6511 9.15124 68.1311 8.79124C68.2711 8.69124 68.5061 8.60624 68.8361 8.53624C69.1661 8.45624 69.4561 8.41624 69.7061 8.41624C70.0061 8.41624 70.3211 8.48124 70.6511 8.61124C70.9911 8.73124 71.2661 8.87124 71.4761 9.03124C71.8461 9.30124 72.1011 9.61624 72.2411 9.97624C72.3811 10.3262 72.4511 10.7462 72.4511 11.2362C72.4511 11.4462 72.3311 11.6512 72.0911 11.8512C71.8611 12.0412 71.6111 12.1362 71.3411 12.1362L70.7711 12.1212C70.4811 12.1212 70.0661 12.1312 69.5261 12.1512L69.2111 12.1662C68.9911 12.1862 68.8261 12.1962 68.7161 12.1962C68.5561 12.1962 68.3361 12.1762 68.0561 12.1362C68.0961 12.6062 68.2711 12.9762 68.5811 13.2462C68.8911 13.5062 69.2261 13.6362 69.5861 13.6362C70.2161 13.6362 70.6561 13.5112 70.9061 13.2612C71.1161 13.1112 71.2561 13.0162 71.3261 12.9762C71.3961 12.9362 71.5061 12.9162 71.6561 12.9162C71.8161 12.9162 71.9561 12.9912 72.0761 13.1412C72.1961 13.2912 72.2561 13.4412 72.2561 13.5912C72.2561 13.7612 72.1511 13.9362 71.9411 14.1162C71.7411 14.2862 71.4661 14.4662 71.1161 14.6562C70.9261 14.7362 70.6661 14.8062 70.3361 14.8662C70.0061 14.9262 69.7311 14.9562 69.5111 14.9562C69.1611 14.9562 68.7711 14.8562 68.3411 14.6562C67.9111 14.4462 67.5911 14.2162 67.3811 13.9662C67.1711 13.7162 66.9861 13.3612 66.8261 12.9012C66.6761 12.4412 66.6011 11.9612 66.6011 11.4612ZM69.5861 11.0562C70.2961 11.0562 70.8161 11.0312 71.1461 10.9812C71.1261 10.6912 71.0361 10.4562 70.8761 10.2762C70.7161 10.0862 70.4961 9.92624 70.2161 9.79624C70.1261 9.75624 70.0461 9.72624 69.9761 9.70624C69.9061 9.68624 69.8261 9.67624 69.7361 9.67624C69.2761 9.67624 68.8861 9.80124 68.5661 10.0512C68.2561 10.3012 68.0711 10.6212 68.0111 11.0112C68.5111 11.0412 69.0361 11.0562 69.5861 11.0562ZM79.2193 14.3562C79.1893 14.5062 79.0993 14.6362 78.9493 14.7462C78.8093 14.8462 78.6093 14.8962 78.3493 14.8962C78.1293 14.8962 77.9543 14.8362 77.8243 14.7162C77.7043 14.5962 77.6393 14.4712 77.6293 14.3412C77.6893 13.9212 77.7193 13.2912 77.7193 12.4512C77.7193 11.9512 77.6893 11.1812 77.6293 10.1412C77.5593 9.16124 77.5243 8.29124 77.5243 7.53124C77.5243 7.12124 77.5443 6.70124 77.5843 6.27124C77.5843 6.13124 77.6643 5.98124 77.8243 5.82124C77.9943 5.66124 78.2243 5.56124 78.5143 5.52124C79.1043 5.46124 79.8893 5.43124 80.8693 5.43124L82.4893 5.44624C82.8393 5.44624 83.1693 5.51624 83.4793 5.65624C83.7993 5.78624 83.9593 6.01124 83.9593 6.33124C83.9593 6.78124 83.7243 7.00624 83.2543 7.00624C83.1143 7.00624 82.9693 6.99624 82.8193 6.97624C82.6693 6.95624 82.5643 6.94124 82.5043 6.93124C82.1643 6.87124 81.8843 6.84124 81.6643 6.84124H80.9293C80.0393 6.84124 79.4093 6.89124 79.0393 6.99124C79.0393 7.32124 79.0493 7.85624 79.0693 8.59624L79.0843 9.55624C79.6143 9.55624 80.3243 9.52124 81.2143 9.45124C81.7543 9.41124 82.1093 9.39124 82.2793 9.39124C82.5193 9.39124 82.7193 9.44124 82.8793 9.54124C83.0393 9.64124 83.1193 9.80124 83.1193 10.0212C83.1193 10.5312 82.7693 10.7862 82.0693 10.7862C81.7193 10.7862 81.4543 10.7912 81.2743 10.8012L80.3893 10.8162C79.9293 10.8162 79.5393 10.8312 79.2193 10.8612C79.2193 11.2312 79.2343 11.6212 79.2643 12.0312C79.2643 12.1612 79.2693 12.3612 79.2793 12.6312C79.2993 12.9012 79.3093 13.1462 79.3093 13.3662C79.3093 13.5562 79.3043 13.7312 79.2943 13.8912C79.2843 14.0512 79.2593 14.2062 79.2193 14.3562ZM86.9415 14.2962C86.9215 14.4662 86.8515 14.6162 86.7315 14.7462C86.6115 14.8762 86.4565 14.9412 86.2665 14.9412C85.9665 14.9412 85.7465 14.8862 85.6065 14.7762C85.4665 14.6562 85.3965 14.4412 85.3965 14.1312C85.3965 13.7112 85.4215 13.2512 85.4715 12.7512C85.5115 12.1712 85.5315 11.7262 85.5315 11.4162C85.5315 11.2562 85.5215 11.0562 85.5015 10.8162C85.4815 10.5962 85.4715 10.4312 85.4715 10.3212C85.4415 10.1512 85.3715 10.0162 85.2615 9.91624C85.1615 9.81624 85.0015 9.73124 84.7815 9.66124C84.6915 9.62124 84.6165 9.55624 84.5565 9.46624C84.4965 9.36624 84.4665 9.27624 84.4665 9.19624C84.4665 8.96624 84.5565 8.79124 84.7365 8.67124C84.9165 8.55124 85.1365 8.49124 85.3965 8.49124C85.6865 8.49124 85.9365 8.59124 86.1465 8.79124C86.3565 8.99124 86.5165 9.24124 86.6265 9.54124C86.8565 9.21124 87.1365 8.94624 87.4665 8.74624C87.8065 8.54624 88.1365 8.44624 88.4565 8.44624C88.8665 8.44624 89.2115 8.51624 89.4915 8.65624C89.7815 8.78624 89.9265 9.01624 89.9265 9.34624C89.9265 9.53624 89.8415 9.73624 89.6715 9.94624C89.5115 10.1462 89.3465 10.2462 89.1765 10.2462C89.0465 10.2462 88.8915 10.1862 88.7115 10.0662C88.6415 10.0162 88.5615 9.97624 88.4715 9.94624C88.3915 9.90624 88.3065 9.88624 88.2165 9.88624C88.0565 9.88624 87.9065 9.91124 87.7665 9.96124C87.6265 10.0112 87.5315 10.0712 87.4815 10.1412C87.3215 10.3912 87.2015 10.6162 87.1215 10.8162C87.0515 11.0162 87.0165 11.2312 87.0165 11.4612C87.0165 11.6312 87.0115 11.7662 87.0015 11.8662L86.9865 12.7212L87.0015 13.2912C87.0015 13.7112 86.9815 14.0462 86.9415 14.2962ZM91.5534 5.26624C91.9034 5.29624 92.2034 5.39124 92.4534 5.55124C92.7134 5.70124 92.8434 5.93124 92.8434 6.24124C92.8434 6.47124 92.7384 6.65624 92.5284 6.79624C92.3184 6.92624 92.0584 6.99124 91.7484 6.99124C91.4584 6.99124 91.2584 6.91624 91.1484 6.76624C91.0384 6.61624 90.9834 6.46124 90.9834 6.30124C90.9834 6.01124 91.0184 5.76624 91.0884 5.56624C91.1584 5.35624 91.3134 5.25624 91.5534 5.26624ZM91.2534 11.4612V11.0262C91.2534 10.5262 91.2284 10.0712 91.1784 9.66124C91.1384 9.24124 91.1134 8.98124 91.1034 8.88124C91.1134 8.77124 91.1884 8.66624 91.3284 8.56624C91.4684 8.46624 91.5934 8.41624 91.7034 8.41624C91.8934 8.41624 92.0834 8.45624 92.2734 8.53624C92.4734 8.60624 92.5984 8.69624 92.6484 8.80624C92.6984 9.17624 92.7234 9.46124 92.7234 9.66124C92.7234 10.1012 92.7434 10.8212 92.7834 11.8212L92.7984 12.4062L92.8284 12.9762C92.8384 13.1362 92.8484 13.3262 92.8584 13.5462C92.8684 13.7662 92.8734 14.0162 92.8734 14.2962C92.8734 14.4862 92.7784 14.6462 92.5884 14.7762C92.4084 14.9062 92.2184 14.9712 92.0184 14.9712C91.7284 14.9712 91.5234 14.9062 91.4034 14.7762C91.2934 14.6462 91.2384 14.4412 91.2384 14.1612L91.2534 11.4612ZM94.507 11.7162C94.507 11.3362 94.577 10.9562 94.717 10.5762C94.857 10.1862 95.042 9.83124 95.272 9.51124C95.502 9.19124 95.867 8.93124 96.367 8.73124C96.867 8.52124 97.312 8.41624 97.702 8.41624C98.102 8.41624 98.507 8.47124 98.917 8.58124C99.337 8.69124 99.627 8.86124 99.787 9.09124C100.157 9.61124 100.342 10.1212 100.342 10.6212C100.342 10.8912 100.282 11.1212 100.162 11.3112C100.052 11.5012 99.892 11.7062 99.682 11.9262C99.512 12.1062 99.242 12.2262 98.872 12.2862C98.512 12.3462 98.152 12.3762 97.792 12.3762C97.562 12.3762 97.282 12.3562 96.952 12.3162C96.622 12.2662 96.302 12.2062 95.992 12.1362C96.012 12.3362 96.062 12.5312 96.142 12.7212C96.222 12.9112 96.317 13.0562 96.427 13.1562C96.627 13.3462 96.832 13.4662 97.042 13.5162C97.262 13.5662 97.542 13.5912 97.882 13.5912C98.242 13.5912 98.577 13.5312 98.887 13.4112C99.137 13.3212 99.342 13.2762 99.502 13.2762C99.692 13.2762 99.837 13.3362 99.937 13.4562C100.037 13.5662 100.087 13.7112 100.087 13.8912C100.087 14.1412 99.942 14.3462 99.652 14.5062C99.362 14.6662 99.027 14.7862 98.647 14.8662C98.277 14.9362 97.977 14.9712 97.747 14.9712C97.277 14.9712 96.822 14.8862 96.382 14.7162C95.942 14.5462 95.577 14.3062 95.287 13.9962C95.047 13.7162 94.857 13.3812 94.717 12.9912C94.577 12.5912 94.507 12.1662 94.507 11.7162ZM97.777 9.69124C97.557 9.69124 97.337 9.73624 97.117 9.82624C96.897 9.90624 96.717 10.0212 96.577 10.1712C96.397 10.3612 96.272 10.5162 96.202 10.6362C96.142 10.7462 96.102 10.9012 96.082 11.1012C96.332 11.1812 96.852 11.2212 97.642 11.2212C98.072 11.2212 98.402 11.1562 98.632 11.0262C98.872 10.8962 98.992 10.7262 98.992 10.5162C98.992 10.3062 98.862 10.1162 98.602 9.94624C98.342 9.77624 98.067 9.69124 97.777 9.69124ZM108.615 13.7412C108.665 13.7612 108.745 13.7862 108.855 13.8162C108.965 13.8462 109.045 13.8762 109.095 13.9062C109.145 13.9362 109.17 13.9812 109.17 14.0412C109.18 14.2812 109.09 14.4812 108.9 14.6412C108.72 14.7912 108.505 14.8662 108.255 14.8662C107.865 14.8662 107.56 14.7612 107.34 14.5512C107.12 14.3412 106.96 14.0212 106.86 13.5912C106.82 13.4212 106.8 13.1862 106.8 12.8862C106.8 12.7162 106.81 12.4412 106.83 12.0612C106.85 11.6612 106.86 11.3412 106.86 11.1012C106.86 10.7512 106.76 10.4462 106.56 10.1862C106.37 9.91624 106.1 9.78124 105.75 9.78124C105.54 9.78124 105.32 9.84624 105.09 9.97624C104.86 10.0962 104.7 10.2462 104.61 10.4262C104.46 10.7162 104.355 11.0312 104.295 11.3712C104.185 11.9712 104.13 12.5962 104.13 13.2462C104.13 13.5562 104.135 13.7962 104.145 13.9662C104.145 14.0062 104.145 14.0862 104.145 14.2062C104.155 14.3162 104.145 14.4212 104.115 14.5212C104.095 14.6112 104.055 14.6962 103.995 14.7762C103.945 14.8262 103.865 14.8662 103.755 14.8962C103.655 14.9362 103.56 14.9562 103.47 14.9562C103.33 14.9562 103.155 14.8962 102.945 14.7762C102.735 14.6562 102.615 14.5212 102.585 14.3712L102.57 14.1162C102.57 14.0262 102.58 13.9212 102.6 13.8012C102.72 13.1012 102.78 12.4912 102.78 11.9712C102.78 11.7412 102.775 11.5612 102.765 11.4312L102.75 10.7262C102.75 10.4862 102.69 10.2562 102.57 10.0362C102.45 9.80624 102.31 9.69124 102.15 9.69124C102.1 9.69124 102.03 9.71124 101.94 9.75124C101.85 9.78124 101.775 9.79624 101.715 9.79624C101.615 9.79624 101.505 9.74624 101.385 9.64624C101.275 9.54624 101.22 9.44124 101.22 9.33124C101.22 9.12124 101.29 8.95124 101.43 8.82124C101.58 8.70124 101.725 8.60624 101.865 8.53624C102.015 8.46624 102.185 8.43124 102.375 8.43124C102.535 8.43124 102.665 8.44624 102.765 8.47624C102.865 8.50624 103 8.57124 103.17 8.67124C103.26 8.72124 103.365 8.83124 103.485 9.00124C103.605 9.17124 103.705 9.41124 103.785 9.72124C104.045 9.24124 104.365 8.90624 104.745 8.71624C105.135 8.51624 105.63 8.41624 106.23 8.41624C106.46 8.41624 106.705 8.49124 106.965 8.64124C107.235 8.79124 107.465 8.96624 107.655 9.16624C107.835 9.38624 107.985 9.66124 108.105 9.99124C108.225 10.3112 108.285 10.6012 108.285 10.8612C108.285 11.0112 108.275 11.2562 108.255 11.5962C108.225 11.8662 108.21 12.1512 108.21 12.4512C108.21 13.1512 108.345 13.5812 108.615 13.7412ZM116.467 14.8212C116.257 14.8212 116.057 14.7612 115.867 14.6412C115.687 14.5112 115.527 14.3762 115.387 14.2362C115.247 14.0862 115.152 13.9862 115.102 13.9362C114.892 14.2362 114.587 14.4812 114.187 14.6712C113.787 14.8612 113.402 14.9562 113.032 14.9562C112.462 14.9562 111.957 14.8362 111.517 14.5962C111.077 14.3562 110.737 14.0312 110.497 13.6212C110.257 13.2012 110.137 12.7362 110.137 12.2262C110.137 11.7462 110.192 11.2862 110.302 10.8462C110.422 10.3962 110.582 10.0212 110.782 9.72124C111.052 9.34124 111.412 9.04124 111.862 8.82124C112.322 8.60124 112.777 8.49124 113.227 8.49124C113.497 8.49124 113.752 8.54124 113.992 8.64124C114.232 8.74124 114.442 8.86624 114.622 9.01624C114.622 8.35624 114.617 7.94124 114.607 7.77124V7.44124C114.607 6.50124 114.667 5.81624 114.787 5.38624C114.897 4.96624 115.167 4.75624 115.597 4.75624C115.827 4.75624 115.997 4.80624 116.107 4.90624C116.217 5.00624 116.272 5.19624 116.272 5.47624C116.272 5.57624 116.247 5.85124 116.197 6.30124C116.087 7.42124 116.032 8.54124 116.032 9.66124C116.032 10.6012 116.047 11.3012 116.077 11.7612C116.117 12.2112 116.192 12.5712 116.302 12.8412C116.422 13.1112 116.607 13.3512 116.857 13.5612C117.007 13.6812 117.112 13.7812 117.172 13.8612C117.242 13.9412 117.277 14.0462 117.277 14.1762C117.277 14.3362 117.197 14.4862 117.037 14.6262C116.877 14.7562 116.687 14.8212 116.467 14.8212ZM112.987 13.7412C113.517 13.7412 113.907 13.5762 114.157 13.2462C114.417 12.9062 114.547 12.4762 114.547 11.9562L114.532 11.1162C114.522 10.9562 114.517 10.7412 114.517 10.4712C114.147 10.0312 113.747 9.81124 113.317 9.81124C113.027 9.81124 112.752 9.88624 112.492 10.0362C112.242 10.1862 112.037 10.4062 111.877 10.6962C111.707 11.0262 111.622 11.5262 111.622 12.1962C111.622 12.6562 111.757 13.0312 112.027 13.3212C112.297 13.6012 112.617 13.7412 112.987 13.7412ZM122.544 11.4612C122.944 11.6912 123.224 11.9212 123.384 12.1512C123.544 12.3712 123.624 12.6612 123.624 13.0212C123.624 13.3812 123.519 13.7012 123.309 13.9812C123.099 14.2512 122.829 14.4612 122.499 14.6112C122.259 14.7212 121.959 14.8062 121.599 14.8662C121.249 14.9262 120.974 14.9562 120.774 14.9562C120.424 14.9562 120.044 14.8912 119.634 14.7612C119.224 14.6312 118.874 14.4462 118.584 14.2062C118.304 13.9662 118.164 13.6862 118.164 13.3662C118.164 13.1662 118.229 13.0112 118.359 12.9012C118.489 12.7812 118.659 12.7212 118.869 12.7212C119.039 12.7212 119.219 12.8412 119.409 13.0812C119.599 13.2912 119.819 13.4512 120.069 13.5612C120.329 13.6712 120.584 13.7262 120.834 13.7262C121.784 13.7262 122.259 13.5112 122.259 13.0812C122.259 12.9912 122.229 12.9062 122.169 12.8262C122.109 12.7362 122.054 12.6762 122.004 12.6462C121.914 12.5762 121.789 12.5162 121.629 12.4662C121.469 12.4162 121.309 12.3762 121.149 12.3462C120.989 12.3062 120.869 12.2762 120.789 12.2562C120.709 12.2362 120.539 12.2012 120.279 12.1512C120.029 12.1012 119.789 12.0162 119.559 11.8962C119.179 11.7162 118.869 11.4962 118.629 11.2362C118.399 10.9762 118.284 10.6412 118.284 10.2312C118.284 10.0012 118.339 9.77124 118.449 9.54124C118.569 9.30124 118.729 9.12124 118.929 9.00124C119.229 8.81124 119.559 8.66624 119.919 8.56624C120.279 8.46624 120.614 8.41624 120.924 8.41624C121.174 8.41624 121.454 8.44124 121.764 8.49124C122.084 8.54124 122.314 8.61124 122.454 8.70124C122.714 8.84124 122.904 8.98624 123.024 9.13624C123.144 9.28624 123.204 9.47624 123.204 9.70624C123.204 9.81624 123.179 9.92624 123.129 10.0362C123.079 10.1362 123.019 10.2062 122.949 10.2462C122.789 10.3062 122.649 10.3362 122.529 10.3362C122.439 10.3362 122.364 10.3212 122.304 10.2912C122.244 10.2512 122.189 10.2112 122.139 10.1712C122.099 10.1312 122.074 10.1062 122.064 10.0962C121.934 9.95624 121.789 9.84624 121.629 9.76624C121.469 9.68624 121.234 9.64624 120.924 9.64624C120.724 9.64624 120.529 9.67624 120.339 9.73624C120.159 9.78624 120.019 9.85124 119.919 9.93124C119.839 9.99124 119.784 10.0462 119.754 10.0962C119.724 10.1362 119.709 10.1912 119.709 10.2612C119.709 10.5412 119.989 10.7462 120.549 10.8762C121.119 11.0062 121.419 11.0762 121.449 11.0862C121.509 11.1062 121.674 11.1562 121.944 11.2362C122.224 11.3162 122.424 11.3912 122.544 11.4612Z" fill="url(#paint0_linear_14_129)"/>
<defs>
<linearGradient id="paint0_linear_14_129" x1="100.013" y1="0.896235" x2="53.2539" y2="17.8682" gradientUnits="userSpaceOnUse">
<stop stop-color="#1093ED"/>
<stop offset="0.328125" stop-color="#ED57BB"/>
</linearGradient>
</defs>
</svg>
